<svg width="192" height="33" viewBox="0 0 192 33" fill="none" xmlns="http://www.w3.org/2000/svg">
<path d="M1.90463 29.9354L4.71751 22.1982C7.53038 24.1056 17.9164 25.1132 20.549 27.6683C23.1816 30.2233 22.3882 32.4905 16.0772 32.9583C11.0285 33.3326 4.52518 31.099 1.90463 29.9354Z" fill="#46C4FF"/>
<path d="M24.0824 10.1244L27.0035 2.45915C22.8924 0.120019 9.87373 -1.49941 4.17584 2.13526C-1.52205 5.76994 -0.18044 10.8539 1.21871 13.5791C2.54907 16.1703 7.34935 18.5813 16.5814 20.8125C23.967 22.5974 26.15 26.4264 26.3183 28.1178C30.9343 20.4886 25.9216 17.2858 23.3612 15.3784C20.8007 13.4711 12.2539 11.204 12.0014 11.132C11.749 11.06 7.70998 9.33264 11.5326 8.25304C14.5907 7.38935 21.1734 9.14071 24.0824 10.1244Z" fill="#2F73F2"/>
<path d="M168.956 23.554V9.55881H172.151L172.462 11.4493C172.914 10.7721 173.508 10.236 174.243 9.84097C174.997 9.42713 175.864 9.22021 176.844 9.22021C179.012 9.22021 180.548 10.0573 181.453 11.7314C181.962 10.9602 182.641 10.3489 183.489 9.8974C184.356 9.44594 185.299 9.22021 186.317 9.22021C188.145 9.22021 189.549 9.76573 190.53 10.8568C191.51 11.9478 192 13.5467 192 15.6535V23.554H188.381V15.9921C188.381 14.7882 188.145 13.8665 187.674 13.2269C187.221 12.5873 186.515 12.2676 185.553 12.2676C184.573 12.2676 183.781 12.625 183.178 13.3398C182.594 14.0546 182.302 15.0515 182.302 16.3307V23.554H178.682V15.9921C178.682 14.7882 178.447 13.8665 177.975 13.2269C177.504 12.5873 176.778 12.2676 175.798 12.2676C174.837 12.2676 174.055 12.625 173.451 13.3398C172.867 14.0546 172.575 15.0515 172.575 16.3307V23.554H168.956Z" fill="white"/>
<path d="M157.295 23.8926C155.542 23.8926 154.184 23.3471 153.223 22.2561C152.281 21.1651 151.809 19.5662 151.809 17.4594V9.55884H155.4V17.1208C155.4 18.3246 155.645 19.2464 156.135 19.8859C156.626 20.5255 157.398 20.8453 158.454 20.8453C159.453 20.8453 160.273 20.4879 160.914 19.7731C161.574 19.0583 161.904 18.0613 161.904 16.7822V9.55884H165.523V23.554H162.328L162.045 21.1839C161.611 22.0115 160.98 22.6699 160.151 23.159C159.34 23.6481 158.388 23.8926 157.295 23.8926Z" fill="white"/>
<path d="M146.731 7.38605C146.071 7.38605 145.525 7.18854 145.091 6.79351C144.676 6.39849 144.469 5.9 144.469 5.29806C144.469 4.69611 144.676 4.20703 145.091 3.83082C145.525 3.43579 146.071 3.23828 146.731 3.23828C147.391 3.23828 147.928 3.43579 148.343 3.83082C148.776 4.20703 148.993 4.69611 148.993 5.29806C148.993 5.9 148.776 6.39849 148.343 6.79351C147.928 7.18854 147.391 7.38605 146.731 7.38605ZM144.921 23.5539V9.55869H148.541V23.5539H144.921Z" fill="white"/>
<path d="M136.004 23.8926C134.759 23.8926 133.666 23.6951 132.724 23.3001C131.781 22.8862 131.027 22.3219 130.462 21.6071C129.896 20.8923 129.557 20.0646 129.444 19.1241H133.091C133.204 19.6696 133.506 20.1399 133.996 20.5349C134.505 20.9111 135.155 21.0992 135.947 21.0992C136.739 21.0992 137.314 20.9393 137.672 20.6195C138.049 20.2997 138.237 19.9329 138.237 19.5191C138.237 18.9172 137.973 18.5127 137.446 18.3058C136.918 18.0801 136.183 17.8638 135.24 17.6568C134.637 17.5252 134.024 17.3653 133.402 17.1772C132.78 16.9891 132.205 16.7539 131.677 16.4718C131.168 16.1708 130.754 15.7946 130.433 15.3431C130.113 14.8728 129.953 14.2991 129.953 13.6219C129.953 12.3804 130.443 11.3364 131.423 10.4899C132.422 9.64346 133.817 9.22021 135.608 9.22021C137.267 9.22021 138.586 9.60584 139.566 10.3771C140.565 11.1483 141.159 12.2111 141.348 13.5655H137.926C137.719 12.5309 136.937 12.0136 135.579 12.0136C134.901 12.0136 134.373 12.1453 133.996 12.4086C133.638 12.672 133.459 13.0012 133.459 13.3962C133.459 13.81 133.732 14.1392 134.279 14.3838C134.825 14.6283 135.551 14.854 136.456 15.061C137.436 15.2867 138.332 15.5406 139.142 15.8228C139.972 16.0861 140.631 16.4906 141.121 17.0361C141.612 17.5628 141.857 18.3246 141.857 19.3216C141.875 20.1869 141.649 20.9675 141.178 21.6635C140.707 22.3595 140.028 22.905 139.142 23.3001C138.256 23.6951 137.21 23.8926 136.004 23.8926Z" fill="white"/>
<path d="M120.072 23.8926C118.715 23.8926 117.489 23.5822 116.396 22.9615C115.322 22.3407 114.464 21.4848 113.823 20.3938C113.201 19.284 112.89 18.0048 112.89 16.5564C112.89 15.108 113.21 13.8383 113.851 12.7472C114.492 11.6374 115.35 10.7721 116.424 10.1513C117.518 9.53059 118.743 9.22021 120.1 9.22021C121.439 9.22021 122.645 9.53059 123.719 10.1513C124.813 10.7721 125.67 11.6374 126.292 12.7472C126.933 13.8383 127.254 15.108 127.254 16.5564C127.254 18.0048 126.933 19.284 126.292 20.3938C125.67 21.4848 124.813 22.3407 123.719 22.9615C122.626 23.5822 121.41 23.8926 120.072 23.8926ZM120.072 20.7606C121.014 20.7606 121.834 20.4126 122.532 19.7166C123.229 19.0018 123.578 17.9484 123.578 16.5564C123.578 15.1644 123.229 14.1204 122.532 13.4244C121.834 12.7096 121.024 12.3522 120.1 12.3522C119.139 12.3522 118.309 12.7096 117.612 13.4244C116.933 14.1204 116.594 15.1644 116.594 16.5564C116.594 17.9484 116.933 19.0018 117.612 19.7166C118.309 20.4126 119.129 20.7606 120.072 20.7606Z" fill="white"/>
<path d="M95.1797 29.7615V9.55881H98.4031L98.799 11.5622C99.2514 10.9414 99.8452 10.3959 100.58 9.92562C101.334 9.45535 102.305 9.22021 103.493 9.22021C104.812 9.22021 105.99 9.54 107.027 10.1796C108.064 10.8191 108.884 11.6938 109.487 12.8037C110.09 13.9135 110.392 15.1738 110.392 16.5846C110.392 17.9954 110.09 19.2557 109.487 20.3656C108.884 21.4566 108.064 22.3219 107.027 22.9615C105.99 23.5822 104.812 23.8926 103.493 23.8926C102.437 23.8926 101.513 23.6951 100.722 23.3001C99.93 22.905 99.2891 22.3501 98.799 21.6353V29.7615H95.1797ZM102.729 20.7324C103.879 20.7324 104.831 20.3468 105.585 19.5755C106.339 18.8043 106.716 17.8073 106.716 16.5846C106.716 15.3619 106.339 14.3555 105.585 13.5655C104.831 12.7754 103.879 12.3804 102.729 12.3804C101.561 12.3804 100.599 12.7754 99.8452 13.5655C99.11 14.3367 98.7424 15.3337 98.7424 16.5564C98.7424 17.7791 99.11 18.7855 99.8452 19.5755C100.599 20.3468 101.561 20.7324 102.729 20.7324Z" fill="white"/>
<path d="M68.9818 23.554V9.55881H72.177L72.488 11.4493C72.9404 10.7721 73.5342 10.236 74.2694 9.84097C75.0234 9.42713 75.8905 9.22021 76.8707 9.22021C79.0385 9.22021 80.5748 10.0573 81.4796 11.7314C81.9886 10.9602 82.6672 10.3489 83.5154 9.8974C84.3825 9.44594 85.3251 9.22021 86.343 9.22021C88.1715 9.22021 89.5758 9.76573 90.556 10.8568C91.5362 11.9478 92.0263 13.5467 92.0263 15.6535V23.554H88.4071V15.9921C88.4071 14.7882 88.1715 13.8665 87.7002 13.2269C87.2478 12.5873 86.5409 12.2676 85.5795 12.2676C84.5993 12.2676 83.8076 12.625 83.2044 13.3398C82.62 14.0546 82.3279 15.0515 82.3279 16.3307V23.554H78.7086V15.9921C78.7086 14.7882 78.473 13.8665 78.0017 13.2269C77.5305 12.5873 76.8047 12.2676 75.8245 12.2676C74.8631 12.2676 74.0809 12.625 73.4776 13.3398C72.8933 14.0546 72.6011 15.0515 72.6011 16.3307V23.554H68.9818Z" fill="white"/>
<path d="M54.1463 29.7616L57.398 22.6229H56.5497L51.0925 9.55884H55.0228L58.9531 19.4063L63.0531 9.55884H66.8985L57.9917 29.7616H54.1463Z" fill="white"/>
<path d="M44.3623 23.8926C43.1182 23.8926 42.0249 23.6951 41.0824 23.3001C40.1398 22.8862 39.3858 22.3219 38.8203 21.6071C38.2548 20.8923 37.9155 20.0646 37.8024 19.1241H41.4499C41.563 19.6696 41.8646 20.1399 42.3547 20.5349C42.8637 20.9111 43.514 21.0992 44.3058 21.0992C45.0975 21.0992 45.6724 20.9393 46.0306 20.6195C46.4076 20.2997 46.5961 19.9329 46.5961 19.5191C46.5961 18.9172 46.3322 18.5127 45.8044 18.3058C45.2765 18.0801 44.5414 17.8638 43.5989 17.6568C42.9957 17.5252 42.383 17.3653 41.761 17.1772C41.1389 16.9891 40.564 16.7539 40.0362 16.4718C39.5272 16.1708 39.1125 15.7946 38.792 15.3431C38.4716 14.8728 38.3114 14.2991 38.3114 13.6219C38.3114 12.3804 38.8015 11.3364 39.7817 10.4899C40.7807 9.64346 42.1757 9.22021 43.9664 9.22021C45.6253 9.22021 46.9448 9.60584 47.925 10.3771C48.9241 11.1483 49.5179 12.2111 49.7064 13.5655H46.285C46.0777 12.5309 45.2954 12.0136 43.9382 12.0136C43.2596 12.0136 42.7318 12.1453 42.3547 12.4086C41.9966 12.672 41.8175 13.0012 41.8175 13.3962C41.8175 13.81 42.0908 14.1392 42.6375 14.3838C43.1842 14.6283 43.9099 14.854 44.8147 15.061C45.7949 15.2867 46.6903 15.5406 47.5009 15.8228C48.3303 16.0861 48.9901 16.4906 49.4802 17.0361C49.9703 17.5628 50.2153 18.3246 50.2153 19.3216C50.2342 20.1869 50.008 20.9675 49.5367 21.6635C49.0655 22.3595 48.3868 22.905 47.5009 23.3001C46.6149 23.6951 45.5687 23.8926 44.3623 23.8926Z" fill="white"/>
</svg>
