<svg width="23" height="23" viewBox="0 0 23 23" fill="none" xmlns="http://www.w3.org/2000/svg">
<path fill-rule="evenodd" clip-rule="evenodd" d="M15.3333 2.3V1.15C15.3333 0.5152 15.9058 0 16.6111 0C17.3164 0 17.8889 0.5152 17.8889 1.15V2.3C20.7115 2.3 23 4.35965 23 6.9V18.4C23 20.9403 20.7115 23 17.8889 23C14.2344 23 8.76428 23 5.11111 23C2.2885 23 0 20.9403 0 18.4V6.9C0 4.35965 2.2885 2.3 5.11111 2.3V1.15C5.11111 0.5152 5.68356 0 6.38889 0C7.09422 0 7.66667 0.5152 7.66667 1.15V2.3H15.3333ZM20.4444 11.5H2.55556V18.4C2.55556 19.6696 3.69917 20.7 5.11111 20.7H17.8889C19.2996 20.7 20.4444 19.6696 20.4444 18.4V11.5ZM17.8889 4.6V5.75C17.8889 6.3848 17.3164 6.9 16.6111 6.9C15.9058 6.9 15.3333 6.3848 15.3333 5.75V4.6H7.66667V5.75C7.66667 6.3848 7.09422 6.9 6.38889 6.9C5.68356 6.9 5.11111 6.3848 5.11111 5.75V4.6C3.69917 4.6 2.55556 5.62925 2.55556 6.9V9.2H20.4444V6.9C20.4444 5.62925 19.2996 4.6 17.8889 4.6Z" fill="#fff"/>
</svg>
