<svg width="23" height="23" viewBox="0 0 23 23" fill="none" xmlns="http://www.w3.org/2000/svg">
<g clip-path="url(#clip0_1_48)">
<path d="M22.5302 7.9366L21.6086 6.32826C21.363 5.89961 20.8173 5.74953 20.387 5.99274C20.2512 6.06942 20.103 6.10832 19.9464 6.10832C19.4509 6.10832 19.0479 5.70528 19.0479 5.20984C19.0479 4.8917 19.2192 4.59405 19.4951 4.43314C19.9214 4.18445 20.0673 3.63852 19.8219 3.21037L19.0076 1.78917C18.5354 0.965216 17.7706 0.374404 16.8542 0.125671C15.9378 -0.123106 14.9794 2.48905e-05 14.1555 0.472378L1.7874 7.56357C0.687395 8.19422 0.00251562 9.37455 0 10.6456V14.0599C0 14.5561 0.40223 14.9583 0.898482 14.9583C1.39393 14.9583 1.79696 15.3614 1.79696 15.8568C1.79696 16.3523 1.39393 16.7553 0.898482 16.7553C0.40223 16.7553 0 17.1576 0 17.6538V19.4058C0 21.3875 1.61225 22.9998 3.59393 22.9998H18.0595C20.0412 22.9998 21.6534 21.3875 21.6534 19.4058V17.6538C21.6534 17.1575 21.2512 16.7553 20.7549 16.7553C20.2595 16.7553 19.8565 16.3523 19.8565 15.8568C19.8565 15.3614 20.2595 14.9583 20.7549 14.9583C21.2512 14.9583 21.6534 14.5561 21.6534 14.0599V12.4915C23.0093 11.4185 23.4152 9.48128 22.5302 7.9366ZM21.0979 10.3021C20.4605 9.29481 19.3372 8.62404 18.0595 8.62404H15.8267C15.9813 8.35603 15.994 8.01562 15.829 7.72785C15.5823 7.29736 15.0332 7.14835 14.6027 7.39515C14.1722 7.64195 14.0232 8.19095 14.27 8.62143C14.2705 8.62233 14.2711 8.62314 14.2717 8.62404H9.47901C8.98276 8.62404 8.58053 9.02627 8.58053 9.52252C8.58053 10.0188 8.98276 10.421 9.47901 10.421H18.0595C19.0504 10.421 19.8565 11.2271 19.8565 12.218V13.3153C18.8106 13.6861 18.0595 14.6854 18.0595 15.8568C18.0595 17.0282 18.8106 18.0274 19.8565 18.3983V19.4058C19.8565 20.3967 19.0504 21.2028 18.0595 21.2028H3.59393C2.60309 21.2028 1.79696 20.3967 1.79696 19.4058V18.3983C2.84284 18.0275 3.59393 17.0282 3.59393 15.8568C3.59393 14.6854 2.84284 13.6862 1.79696 13.3153V12.218C1.79696 11.2271 2.60309 10.421 3.59393 10.421H4.9866C5.48285 10.421 5.88508 10.0188 5.88508 9.52252C5.88508 9.02627 5.48285 8.62404 4.9866 8.62404H3.59393C3.5787 8.62404 3.5637 8.62502 3.54851 8.62521L15.0493 2.03126C15.4566 1.79775 15.9305 1.73679 16.3836 1.85984C16.8368 1.98288 17.2149 2.275 17.4484 2.68253L17.8955 3.46283C17.4866 3.94421 17.2509 4.56265 17.2509 5.20979C17.2509 6.69608 18.46 7.90524 19.9463 7.90524C20.1046 7.90524 20.2622 7.89118 20.4172 7.86364L20.9709 8.82991C21.2377 9.29553 21.267 9.83297 21.0979 10.3021Z" fill="#B5CFFF"/>
<path d="M14.9148 13.5658C15.4111 13.5658 15.8133 13.1635 15.8133 12.6673C15.8133 12.1711 15.4111 11.7688 14.9148 11.7688C14.4186 11.7688 14.0164 12.1711 14.0164 12.6673C14.0164 13.1635 14.4186 13.5658 14.9148 13.5658Z" fill="#B5CFFF"/>
<path d="M14.9148 16.7103C15.4111 16.7103 15.8133 16.308 15.8133 15.8118C15.8133 15.3156 15.4111 14.9133 14.9148 14.9133C14.4186 14.9133 14.0164 15.3156 14.0164 15.8118C14.0164 16.308 14.4186 16.7103 14.9148 16.7103Z" fill="#B5CFFF"/>
<path d="M14.9148 19.8551C15.4111 19.8551 15.8133 19.4528 15.8133 18.9566C15.8133 18.4604 15.4111 18.0581 14.9148 18.0581C14.4186 18.0581 14.0164 18.4604 14.0164 18.9566C14.0164 19.4528 14.4186 19.8551 14.9148 19.8551Z" fill="#B5CFFF"/>
<path d="M13.4771 6.33285C13.9733 6.33285 14.3755 5.93059 14.3755 5.43437C14.3755 4.93815 13.9733 4.53589 13.4771 4.53589C12.9808 4.53589 12.5786 4.93815 12.5786 5.43437C12.5786 5.93059 12.9808 6.33285 13.4771 6.33285Z" fill="#B5CFFF"/>
</g>
<defs>
<clipPath id="clip0_1_48">
<rect width="23" height="23" fill="white"/>
</clipPath>
</defs>
</svg>
