<svg width="42" height="43" viewBox="0 0 42 43" fill="none" xmlns="http://www.w3.org/2000/svg">
<path d="M22.0414 13.6668H18.9164V26.1668L28.8122 32.1043L30.3747 29.5418L22.0414 24.6043V13.6668ZM32.1185 0.770996L41.7164 8.78141L39.0497 11.9793L29.4456 3.97308L32.1185 0.770996ZM9.88099 0.770996L12.5518 3.971L2.95182 11.9793L0.285156 8.77933L9.88099 0.770996ZM20.9997 5.3335C10.6456 5.3335 2.24974 13.7293 2.24974 24.0835C2.24974 34.4377 10.6456 42.8335 20.9997 42.8335C31.3539 42.8335 39.7497 34.4377 39.7497 24.0835C39.7497 13.7293 31.3539 5.3335 20.9997 5.3335ZM20.9997 38.6668C12.9581 38.6668 6.41641 32.1252 6.41641 24.0835C6.41641 16.0418 12.9581 9.50016 20.9997 9.50016C29.0414 9.50016 35.5831 16.0418 35.5831 24.0835C35.5831 32.1252 29.0414 38.6668 20.9997 38.6668Z" fill="#2F73F2"/>
</svg>
