<svg xmlns="http://www.w3.org/2000/svg" viewBox="0 0 240 80" width="240" height="80">
  <g fill="#3c3c3c">
    <!-- I -->
    <rect x="68" y="22" width="18" height="4" rx="1"/>
    <rect x="72" y="26" width="10" height="4" rx="1"/>
    <rect x="72" y="30" width="10" height="4" rx="1"/>
    <rect x="72" y="34" width="10" height="4" rx="1"/>
    <rect x="72" y="38" width="10" height="4" rx="1"/>
    <rect x="72" y="42" width="10" height="4" rx="1"/>
    <rect x="68" y="46" width="18" height="4" rx="1"/>
    <!-- B -->
    <rect x="94" y="22" width="10" height="4" rx="1"/>
    <rect x="94" y="26" width="16" height="4" rx="1"/>
    <rect x="94" y="30" width="16" height="4" rx="1"/>
    <rect x="94" y="34" width="14" height="4" rx="1"/>
    <rect x="94" y="38" width="16" height="4" rx="1"/>
    <rect x="94" y="42" width="16" height="4" rx="1"/>
    <rect x="94" y="46" width="10" height="4" rx="1"/>
    <!-- M -->
    <rect x="118" y="22" width="10" height="4" rx="1"/>
    <rect x="118" y="26" width="22" height="4" rx="1"/>
    <rect x="118" y="30" width="22" height="4" rx="1"/>
    <rect x="118" y="34" width="22" height="4" rx="1"/>
    <rect x="118" y="38" width="10" height="4" rx="1"/>
    <rect x="130" y="38" width="10" height="4" rx="1"/>
    <rect x="118" y="42" width="10" height="4" rx="1"/>
    <rect x="130" y="42" width="10" height="4" rx="1"/>
    <rect x="118" y="46" width="10" height="4" rx="1"/>
    <rect x="130" y="46" width="10" height="4" rx="1"/>
  </g>
</svg>
